<?xml version="1.0" encoding="UTF-8"?>
<svg id="Layer_2" data-name="Layer 2" xmlns="http://www.w3.org/2000/svg" viewBox="0 0 17.26 14.7">
  <defs>
    <style>
      .cls-1 {
        fill: #fff;
      }
    </style>
  </defs>
  <g id="Layer_1-2" data-name="Layer 1">
    <g>
      <path class="cls-1" d="M3.76,6.9H1.65C1.65,3.1,4.75,0,8.55,0c2.26,0,4.39,1.12,5.67,2.97,.18,.25,.1,.6-.16,.76l-.93,.54c-.23,.13-.52,.07-.68-.14-.89-1.25-2.35-2.01-3.9-2.01-2.64,0-4.79,2.15-4.79,4.79Z"/>
      <path class="cls-1" d="M5.21,7.88l-2.01,2.01c-.27,.27-.71,.27-.98,0L.2,7.88c-.44-.44-.13-1.18,.49-1.18H4.72c.62,0,.92,.74,.49,1.18Z"/>
      <path class="cls-1" d="M8.72,14.7c-2.22,0-4.3-1.08-5.6-2.86-.18-.25-.11-.6,.15-.76l.92-.55c.23-.14,.52-.08,.68,.13,.92,1.23,2.39,1.96,3.94,1.93,1.28-.02,2.47-.55,3.36-1.47,.89-.92,1.36-2.13,1.34-3.41l2.11-.04c.05,2.46-1.18,4.74-3.39,6.09-1.01,.62-2.19,.92-3.38,.94-.04,0-.09,0-.13,0Z"/>
      <path class="cls-1" d="M12.05,6.75l1.98-2.05c.26-.27,.7-.28,.98-.02l2.05,1.98c.44,.43,.15,1.18-.47,1.19l-4.03,.08c-.62,.01-.94-.73-.51-1.17Z"/>
    </g>
  </g>
</svg>