<?xml version="1.0" encoding="UTF-8"?>
<svg id="Layer_2" data-name="Layer 2" xmlns="http://www.w3.org/2000/svg" viewBox="0 0 15.79 15.8">
  <defs>
    <style>
      .cls-1 {
        fill: #fff;
      }
    </style>
  </defs>
  <g id="Layer_1-2" data-name="Layer 1">
    <path id="Icon_ionic-ios-settings" data-name="Icon ionic-ios-settings" class="cls-1" d="M14.49,7.9c0-.84,.52-1.6,1.3-1.9-.2-.83-.53-1.62-.98-2.35-.26,.12-.54,.18-.83,.18-1.12,0-2.03-.9-2.03-2.02,0-.29,.06-.57,.18-.83-.72-.45-1.51-.77-2.34-.97-.4,1.05-1.58,1.57-2.62,1.17-.54-.21-.96-.63-1.17-1.17-.83,.2-1.62,.53-2.35,.97,.46,1.02,0,2.22-1.02,2.68-.26,.12-.54,.18-.83,.18-.29,0-.57-.06-.83-.18-.44,.73-.77,1.52-.97,2.35,1.05,.4,1.57,1.58,1.17,2.63-.21,.54-.63,.96-1.17,1.17,.2,.83,.53,1.62,.97,2.35,1.02-.45,2.22,0,2.68,1.03,.23,.52,.23,1.12,0,1.65,.73,.45,1.52,.78,2.35,.98,.4-1.04,1.57-1.57,2.62-1.16,.54,.21,.96,.63,1.16,1.16,.83-.2,1.62-.53,2.35-.98-.45-1.03,.01-2.23,1.04-2.68,.52-.23,1.12-.23,1.64,0,.45-.73,.78-1.52,.98-2.35-.78-.31-1.3-1.06-1.3-1.9Zm-6.56,3.29c-1.82,0-3.29-1.47-3.29-3.29s1.47-3.29,3.29-3.29,3.29,1.47,3.29,3.29h0c0,1.82-1.47,3.29-3.29,3.29h0Z"/>
  </g>
</svg>