<?xml version="1.0" encoding="UTF-8"?>
<svg id="Layer_2" data-name="Layer 2" xmlns="http://www.w3.org/2000/svg" viewBox="0 0 435.02 388.09">
  <defs>
    <style>
      .cls-1 {
        fill: #fff;
      }
    </style>
  </defs>
  <g id="Layer_1-2" data-name="Layer 1">
    <path class="cls-1" d="M315.52,0c-40.56,0-76.41,20.22-98.01,51.11C195.91,20.22,160.06,0,119.5,0,53.5,0,0,53.51,0,119.5c0,30.75,11.62,58.79,30.71,79.97l186.8,188.62,186.8-188.62c19.09-21.18,30.71-49.21,30.71-79.97C435.02,53.5,381.51,0,315.52,0Zm66.94,178.9l-164.95,166.56L52.56,178.9c-14.55-16.38-22.56-37.45-22.56-59.4,0-49.35,40.15-89.5,89.5-89.5,29.2,0,56.65,14.32,73.41,38.3l24.59,35.15h.02l24.59-35.16c16.77-23.98,44.21-38.3,73.41-38.3,49.35,0,89.5,40.15,89.5,89.5,0,21.95-8,43.01-22.56,59.4Z"/>
  </g>
</svg>